<?xml version="1.0" standalone="no"?>
<!DOCTYPE svg PUBLIC "-//W3C//DTD SVG 20010904//EN"
 "http://www.w3.org/TR/2001/REC-SVG-20010904/DTD/svg10.dtd">
<svg version="1.0" xmlns="http://www.w3.org/2000/svg"
 width="523.000000pt" height="523.000000pt" viewBox="0 0 523.000000 523.000000"
 preserveAspectRatio="xMidYMid meet">
<metadata>
Created by potrace 1.11, written by Peter Selinger 2001-2013
</metadata>
<g transform="translate(0.000000,523.000000) scale(0.100000,-0.100000)"
fill="#000000" stroke="none">
<path d="M2524 5134 c-85 -15 -149 -47 -200 -100 -50 -52 -59 -92 -50 -200 3
-38 9 -98 12 -134 3 -36 9 -99 14 -140 5 -41 12 -124 15 -185 3 -60 7 -121 10
-135 2 -14 7 -54 10 -90 3 -36 8 -83 10 -105 2 -22 7 -85 10 -140 3 -55 8
-116 10 -135 2 -19 7 -60 10 -90 9 -101 14 -114 60 -157 71 -66 183 -94 262
-66 21 7 45 13 53 13 26 0 89 69 99 108 11 43 20 129 26 257 3 50 7 110 10
135 2 25 7 70 10 100 3 30 8 71 10 90 2 19 7 82 10 140 3 58 8 121 10 140 3
19 7 59 10 87 3 29 7 67 9 85 8 64 20 274 18 318 -7 143 -223 244 -438 204z"/>
<path d="M675 4083 c-30 -6 -95 -37 -95 -45 0 -5 -5 -8 -10 -8 -35 0 -133
-125 -169 -214 -35 -86 -36 -204 -1 -271 23 -45 68 -83 123 -104 12 -5 63 -28
112 -51 50 -23 108 -50 130 -60 22 -10 93 -44 158 -74 65 -31 120 -56 122 -56
2 0 87 -39 273 -126 40 -19 74 -34 76 -34 2 0 66 -30 143 -66 186 -89 236 -89
325 -2 62 60 90 124 91 203 0 51 -4 71 -23 97 -20 29 -99 90 -162 125 -11 6
-23 15 -27 20 -3 5 -19 17 -36 27 -16 10 -61 42 -100 71 -38 28 -78 54 -87 58
-10 3 -18 11 -18 17 0 5 -4 10 -9 10 -5 0 -65 39 -133 87 -68 48 -157 110
-198 138 -41 28 -97 67 -125 86 -27 19 -52 36 -55 39 -6 6 -37 28 -127 89 -61
42 -118 55 -178 44z"/>
<path d="M4478 4080 c-26 -8 -220 -138 -260 -174 -10 -9 -20 -16 -23 -16 -3 0
-32 -19 -65 -42 -57 -42 -180 -128 -225 -158 -102 -69 -366 -255 -381 -268 -5
-5 -20 -14 -31 -21 -12 -6 -27 -17 -35 -23 -7 -7 -33 -26 -58 -43 -25 -16 -51
-35 -58 -42 -11 -11 -42 -85 -41 -98 5 -46 36 -136 59 -170 57 -83 149 -134
208 -115 4 1 12 3 17 4 6 1 39 16 75 33 36 16 97 45 135 62 39 18 88 41 111
52 22 10 45 19 51 19 6 0 16 6 22 14 7 8 23 17 36 20 23 6 96 38 265 118 47
22 103 48 125 58 22 10 75 34 118 54 42 20 112 52 155 71 148 68 158 76 191
150 37 84 22 202 -41 318 -22 40 -148 179 -148 163 0 -4 -13 2 -29 13 -33 24
-127 35 -173 21z"/>
<path d="M1690 2333 c-8 -3 -62 -28 -118 -54 -57 -27 -110 -49 -117 -49 -7 0
-18 -7 -25 -15 -7 -8 -17 -15 -22 -15 -6 0 -53 -20 -105 -45 -52 -25 -96 -45
-98 -45 -3 0 -49 -21 -102 -46 -54 -25 -138 -64 -188 -86 -49 -23 -94 -44
-100 -48 -5 -4 -27 -13 -47 -19 -21 -7 -38 -17 -38 -22 0 -5 -7 -9 -15 -9 -8
0 -75 -29 -149 -65 -125 -60 -136 -68 -162 -112 -25 -43 -28 -57 -28 -138 0
-76 5 -101 28 -157 16 -38 32 -68 37 -68 5 0 9 -6 9 -12 0 -7 11 -24 23 -38
32 -36 123 -110 135 -110 5 0 23 -7 38 -15 33 -17 129 -20 147 -5 29 25 144
101 165 110 12 5 22 14 22 20 0 5 4 10 10 10 5 0 56 33 113 74 57 40 113 78
124 85 12 6 28 17 35 23 7 7 63 47 123 88 61 41 115 79 121 85 7 5 94 66 194
135 100 69 194 136 209 150 53 50 59 155 16 242 -22 44 -109 139 -124 136 -3
-1 -19 4 -34 10 -30 13 -52 14 -77 5z"/>
<path d="M3499 2324 c-47 -14 -139 -86 -139 -109 0 -7 -6 -18 -14 -24 -16 -13
-37 -92 -38 -142 -1 -19 4 -47 11 -64 11 -28 53 -75 66 -75 4 0 12 -6 20 -12
7 -7 43 -33 80 -58 36 -25 116 -81 178 -125 62 -44 137 -97 167 -117 30 -21
78 -54 105 -73 28 -20 93 -65 145 -100 52 -36 147 -101 210 -146 188 -132 189
-132 245 -132 215 0 424 334 333 531 -22 48 -63 92 -85 92 -7 0 -13 5 -13 10
0 6 -5 10 -12 10 -6 0 -36 12 -67 26 -31 14 -83 39 -116 54 -33 15 -96 45
-140 65 -181 85 -228 105 -241 105 -8 0 -14 4 -14 9 0 5 -10 13 -22 16 -13 4
-45 17 -73 30 -82 38 -176 81 -255 118 -41 19 -104 48 -140 65 -117 56 -139
61 -191 46z"/>
<path d="M2585 1789 c-92 -17 -176 -74 -194 -132 -14 -46 -27 -169 -36 -332
-5 -92 -9 -143 -20 -235 -8 -63 -14 -126 -19 -216 -7 -96 -15 -191 -21 -239
-11 -93 -19 -201 -19 -281 l-1 -91 38 -47 c48 -58 140 -106 217 -114 121 -12
206 -3 274 27 25 12 47 21 51 21 3 0 26 21 51 46 46 47 68 108 58 158 -2 12
-6 65 -9 118 -3 53 -7 112 -9 130 -2 18 -7 69 -11 113 -4 44 -9 88 -11 99 -2
10 -6 66 -9 125 -5 97 -11 164 -20 231 -5 36 -14 143 -20 235 -15 238 -22 273
-64 318 -46 51 -148 80 -226 66z"/>
<path d="M4993 1145 c0 -33 2 -45 4 -27 2 18 2 45 0 60 -2 15 -4 0 -4 -33z"/>
</g>
</svg>
